<svg xmlns="http://www.w3.org/2000/svg" width="27.216" height="27.21" viewBox="0 0 27.216 27.21">
  <path id="Icon_awesome-instagram" data-name="Icon awesome-instagram" d="M13.606,8.866a6.976,6.976,0,1,0,6.976,6.976A6.965,6.965,0,0,0,13.606,8.866Zm0,11.512a4.536,4.536,0,1,1,4.536-4.536A4.544,4.544,0,0,1,13.606,20.378Zm8.889-11.8a1.627,1.627,0,1,1-1.627-1.627A1.623,1.623,0,0,1,22.495,8.581Zm4.621,1.651a8.053,8.053,0,0,0-2.2-5.7,8.106,8.106,0,0,0-5.7-2.2c-2.247-.128-8.98-.128-11.226,0a8.094,8.094,0,0,0-5.7,2.192,8.079,8.079,0,0,0-2.2,5.7c-.128,2.247-.128,8.98,0,11.226a8.053,8.053,0,0,0,2.2,5.7,8.116,8.116,0,0,0,5.7,2.2c2.247.128,8.98.128,11.226,0a8.053,8.053,0,0,0,5.7-2.2,8.106,8.106,0,0,0,2.2-5.7c.128-2.247.128-8.974,0-11.22Zm-2.9,13.631a4.592,4.592,0,0,1-2.587,2.587c-1.791.71-6.041.546-8.021.546s-6.236.158-8.021-.546A4.592,4.592,0,0,1,3,23.863c-.71-1.791-.546-6.041-.546-8.021S2.294,9.607,3,7.822A4.592,4.592,0,0,1,5.585,5.236c1.791-.71,6.041-.546,8.021-.546s6.236-.158,8.021.546a4.592,4.592,0,0,1,2.587,2.587c.71,1.791.546,6.041.546,8.021S24.923,22.078,24.213,23.863Z" transform="translate(0.005 -2.238)" fill="#fff"/>
</svg>
