<svg id="Group_92" data-name="Group 92" xmlns="http://www.w3.org/2000/svg" xmlns:xlink="http://www.w3.org/1999/xlink" width="77.298" height="21.822" viewBox="0 0 77.298 21.822">
  <defs>
    <clipPath id="clip-path">
      <rect id="Rectangle_231" data-name="Rectangle 231" width="77.298" height="21.822" fill="#fff"/>
    </clipPath>
  </defs>
  <g id="Group_91" data-name="Group 91" clip-path="url(#clip-path)">
    <path id="Path_72" data-name="Path 72" d="M13.359,20.842H12.38L8.055,0H0V21.82H3.918v-.262q0-8.734,0-17.468a3.265,3.265,0,0,0-.168-1.116c-.1-.271-.175-.548-.26-.823-.118-.385-.234-.77-.353-1.165H4.507L9.225,21.825h7.289L21.231.991h1.362c-.02.07-.035.127-.052.182-.223.725-.448,1.449-.666,2.175a1.22,1.22,0,0,0-.052.346q0,8.96,0,17.92v.206h3.92V.009H17.88L13.359,20.842" transform="translate(0 -0.003)" fill="#fff"/>
    <path id="Path_73" data-name="Path 73" d="M355.139,17.248c0-.14-.074-.193-.167-.258q-4.25-2.925-8.5-5.853c-.056-.039-.11-.08-.177-.13.087-.064.15-.111.213-.156q4.237-3.012,8.476-6.023a.306.306,0,0,0,.152-.287c-.01-.413,0-.826,0-1.239,0-1.088,0-2.176,0-3.3-.079.054-.128.084-.174.119l-9.137,6.853a3.729,3.729,0,0,1-.922.656,3.461,3.461,0,0,1-1.15.032.689.689,0,0,1-.373-.119q-4.952-3.7-9.9-7.415c-.05-.038-.1-.071-.183-.125V.221c0,1.429,0,2.859,0,4.288a.36.36,0,0,0,.174.335q4.241,3.007,8.475,6.023c.061.043.119.09.19.144-.076.055-.128.094-.182.13q-4.248,2.927-8.5,5.851a.321.321,0,0,0-.159.3c.005,1.436,0,2.872,0,4.308v.219c.079-.053.133-.085.184-.122q4.96-3.624,9.922-7.245a.573.573,0,0,1,.3-.1c.341-.012.682-.012,1.022,0a.576.576,0,0,1,.3.1q4.948,3.606,9.891,7.221c.061.044.123.086.2.142,0-.064.007-.1.007-.128,0-1.482,0-2.964,0-4.445" transform="translate(-277.841)" fill="#fff"/>
    <rect id="Rectangle_230" data-name="Rectangle 230" width="22.012" height="3.907" transform="translate(30.013 9.015)" fill="#fff"/>
  </g>
</svg>
